Coordinates
version=1
nRows=4
nColumns=60
inDegrees=yes

Units are S.I. units (second, meters, Newtons, ...)
If the header above contains a line with 'inDegrees', this indicates whether rotational values are in degrees (yes) or radians (no).

endheader
time	pelvis_tilt	pelvis_list	pelvis_rotation	pelvis_tx	pelvis_ty	pelvis_tz	hip_flexion_r	hip_adduction_r	hip_rotation_r	knee_angle_r_beta	knee_angle_r	ankle_angle_r	subtalar_angle_r	mtp_angle_r	hip_flexion_l	hip_adduction_l	hip_rotation_l	knee_angle_l_beta	knee_angle_l	ankle_angle_l	subtalar_angle_l	mtp_angle_l	L5_S1_Flex_Ext	L5_S1_Lat_Bending	L5_S1_axial_rotation	L4_L5_Flex_Ext	L4_L5_Lat_Bending	L4_L5_axial_rotation	L3_L4_Flex_Ext	L3_L4_Lat_Bending	L3_L4_axial_rotation	L2_L3_Flex_Ext	L2_L3_Lat_Bending	L2_L3_axial_rotation	L1_L2_Flex_Ext	L1_L2_Lat_Bending	L1_L2_axial_rotation	L1_T12_Flex_Ext	L1_T12_Lat_Bending	L1_T12_axial_rotation	Abs_r3	Abs_r2	Abs_r1	Abs_t1	Abs_t2	arm_flex_r	arm_add_r	arm_rot_r	elbow_flex_r	pro_sup_r	wrist_flex_r	wrist_dev_r	arm_flex_l	arm_add_l	arm_rot_l	elbow_flex_l	pro_sup_l	wrist_flex_l	wrist_dev_l
    123.58000000	     -0.38973786	      8.10004160	     90.84926107	      0.38920256	      0.94486689	      0.26968657	     -0.38875526	     -6.36169435	     -0.31810556	      0.22026880	    -12.62047260	      6.70423875	      0.00000000	      0.00000000	     -1.63086239	     -4.03500760	     -4.33784872	      0.16042611	     -9.19173892	      7.62390182	      0.00000000	      0.00000000	     -5.40201320	      0.03261825	     -0.20710479	    -10.03207872	      0.04338227	     -0.22004884	     -8.87496749	      0.07930800	     -0.22004884	     -6.17396089	      0.07930800	     -0.18121669	     -5.01630946	      0.06651513	     -0.16827264	     -3.08671034	      0.05052566	     -0.15532859	    -38.58604010	      0.36898412	     -1.15185473	      0.00000000	      0.00000000	     64.42755661	    -18.86123646	     17.97819570	     49.15030263	     55.20594369	      1.59651723	     24.81366887	     71.58366211	    -19.60537323	     33.26227285	     41.18920685	     48.17676034	      4.69390471	     20.09054724
    123.59000000	     -0.36281977	      7.83323973	     90.65550801	      0.38926540	      0.94464466	      0.27054404	     -0.00971113	     -6.34117803	     -0.09909859	      0.21962252	    -12.58344363	      6.57026554	      0.00000000	      0.00000000	     -1.33071418	     -4.03724066	     -4.42732103	      0.15964700	     -9.14709919	      7.42257102	      0.00000000	      0.00000000	     -5.43140944	      0.02846564	     -0.19543060	    -10.08667047	      0.03785931	     -0.20764502	     -8.92326257	      0.06921137	     -0.20764502	     -6.20755785	      0.06921137	     -0.17100178	     -5.04360681	      0.05804714	     -0.15878737	     -3.10350735	      0.04409328	     -0.14657295	    -38.79601449	      0.32200906	     -1.08692639	      0.00000000	      0.00000000	     65.32940770	    -18.23730046	     17.59367439	     48.01746491	     55.30551328	      1.66602934	     24.56452688	     72.23967264	    -19.48961022	     33.41622945	     40.53107327	     47.99265074	      4.65383025	     20.04488481
    123.60000000	     -0.32785145	      7.57460326	     90.45448792	      0.38930372	      0.94441711	      0.27122996	      0.33738584	     -6.31831621	      0.08643808	      0.21858221	    -12.52383832	      6.45200452	      0.00000000	      0.00000000	     -1.04309993	     -4.04716704	     -4.55573680	      0.15925951	     -9.12489782	      7.27775475	      0.00000000	      0.00000000	     -5.45849701	      0.02602047	     -0.18232821	    -10.13697481	      0.03460722	     -0.19372372	     -8.96776475	      0.06326617	     -0.19372372	     -6.23851624	      0.06326617	     -0.15953718	     -5.06876033	      0.05306094	     -0.14814167	     -3.11898519	      0.04030571	     -0.13674616	    -38.98949832	      0.29434875	     -1.01405479	      0.00000000	      0.00000000	     66.22457267	    -17.70439781	     17.41174328	     46.92241811	     55.52843013	      1.79178109	     24.19749379	     72.87853869	    -19.38885024	     33.68659784	     39.86044296	     47.81870884	      4.62551164	     19.93277612
    123.61000000	     -0.28414298	      7.34983469	     90.25157748	      0.38936602	      0.94427440	      0.27188509	      0.64994381	     -6.27964744	      0.30167308	      0.21769780	    -12.47316517	      6.28579693	      0.00000000	      0.00000000	     -0.77348944	     -4.06782265	     -4.67461638	      0.15928616	     -9.12642456	      7.13176073	      0.00000000	      0.00000000	     -5.49102302	      0.02393375	     -0.17436905	    -10.19737885	      0.03183189	     -0.18526712	     -9.02120172	      0.05819252	     -0.18526712	     -6.27569021	      0.05819252	     -0.15257292	     -5.09896398	      0.04880570	     -0.14167486	     -3.13757055	      0.03707338	     -0.13077679	    -39.22182835	      0.27074336	     -0.96978836	      0.00000000	      0.00000000	     67.09331064	    -17.22285699	     17.40530104	     45.77351978	     56.92055179	      3.19938119	     21.71425353	     73.51895096	    -19.49061290	     34.46996705	     39.33722756	     46.72204453	      4.59722004	     18.60368099
